<?xml version="1.0" encoding="UTF-8" standalone="no" ?>
<!DOCTYPE svg PUBLIC "-//W3C//DTD SVG 1.1//EN" "http://www.w3.org/Graphics/SVG/1.1/DTD/svg11.dtd">
<svg xmlns="http://www.w3.org/2000/svg" xmlns:xlink="http://www.w3.org/1999/xlink" version="1.1" width="640" height="640" viewBox="0 0 640 640" xml:space="preserve">
<desc>Created with Fabric.js 5.3.0</desc>
<defs>
</defs>
<g transform="matrix(1 0 0 1.0116899181 105.0826572089 230.2016649187)" id="ddXXVFpwEWKHrfl47o5vl"  >
<path style="stroke: rgb(0,0,0); stroke-width: 1; stroke-dasharray: none; stroke-linecap: butt; stroke-dashoffset: 0; stroke-linejoin: miter; stroke-miterlimit: 4; fill: rgb(255,255,255); fill-opacity: 0; fill-rule: nonzero; opacity: 1;"  transform=" translate(0, 0)" d="M 0 0" stroke-linecap="round" />
</g>
<g transform="matrix(1 0 0 1 101.1058587031 181.0102984676)" id="sQ72BgkhwT7y-HAkDVTx8"  >
<path style="stroke: rgb(0,0,0); stroke-width: 1; stroke-dasharray: none; stroke-linecap: butt; stroke-dashoffset: 0; stroke-linejoin: miter; stroke-miterlimit: 4; fill: rgb(255,255,255); fill-opacity: 0; fill-rule: nonzero; opacity: 1;"  transform=" translate(0, 0)" d="M 0 0" stroke-linecap="round" />
</g>
<g transform="matrix(0 -1.0116899181 1 0 104.0963855422 284.5800382366)" id="WZQWlw-JdviZ_KFA5iVwK"  >
<path style="stroke: rgb(0,0,0); stroke-width: 1; stroke-dasharray: none; stroke-linecap: butt; stroke-dashoffset: 0; stroke-linejoin: miter; stroke-miterlimit: 4; fill: rgb(255,255,255); fill-opacity: 0; fill-rule: nonzero; opacity: 1;"  transform=" translate(0, 0)" d="M -30.36063 -18.69919 C -36.71703 -18.69919 -41.86992 -13.486070000000002 -41.86992 -7.055360000000002 L -41.86992 7.732859999999999 L -41.86992 7.732859999999999 C -41.86992 13.78939 -37.01686 18.69918 -31.03031 18.69918 L 31.03031 18.69918 L 31.03031 18.69918 C 37.01686 18.69918 41.86992 13.789389999999997 41.86992 7.732859999999999 L 41.86992 -8.071620000000001 L 41.86992 -8.071620000000001 C 41.86992 -13.94106 37.16677 -18.69919 31.36515 -18.69919 z" stroke-linecap="round" />
</g>
<g transform="matrix(0 -1.0116899181 1.0534104128 0 102.8188215598 284.5800369225)" id="Q9PafE6ZOo1CLp4SLCMI6"  >
<path style="stroke: rgb(0,0,0); stroke-width: 1; stroke-dasharray: none; stroke-linecap: butt; stroke-dashoffset: 0; stroke-linejoin: miter; stroke-miterlimit: 4; fill: rgb(255,255,255); fill-opacity: 0; fill-rule: nonzero; opacity: 1;"  transform=" translate(0, 0)" d="M -30.36063 -18.69919 C -36.71703 -18.69919 -41.86992 -13.750390000000001 -41.86992 -7.645730000000002 L -41.86992 8.288879999999997 L -41.86992 8.288879999999997 C -41.86992 14.038329999999998 -37.01686 18.69918 -31.03031 18.69918 L 31.03031 18.69918 L 31.03031 18.69918 C 37.01686 18.69918 41.86992 14.038329999999998 41.86992 8.288879999999999 L 41.86992 -8.61046 L 41.86992 -8.61046 C 41.86992 -14.182310000000001 37.16677 -18.69919 31.36515 -18.69919 z" stroke-linecap="round" />
</g>
<g transform="matrix(1 0 0 1 98.2860814722 241.7148186561)" id="W0_NX7tVpAceo4lnzdIi-"  >
<path style="stroke: rgb(0,0,0); stroke-width: 1; stroke-dasharray: none; stroke-linecap: butt; stroke-dashoffset: 0; stroke-linejoin: miter; stroke-miterlimit: 4; fill: rgb(255,255,255); fill-opacity: 0; fill-rule: nonzero; opacity: 1;"  transform=" translate(0, 0)" d="M 0 0" stroke-linecap="round" />
</g>
<g transform="matrix(1 0 0 1 98.2860814722 242.2148186561)" id="_g6VtUQ0Vrb0hv9sQvu9E"  >
<path style="stroke: rgb(0,0,0); stroke-width: 1; stroke-dasharray: none; stroke-linecap: butt; stroke-dashoffset: 0; stroke-linejoin: miter; stroke-miterlimit: 4; fill: rgb(255,255,255); fill-opacity: 0; fill-rule: nonzero; opacity: 1;"  transform=" translate(0, 0)" d="M 0 0" stroke-linecap="round" />
</g>
<g transform="matrix(1 0 0 1 97.7860814722 242.2148186561)" id="tIeC8Ojgu4BR65-Nl3bW0"  >
<path style="stroke: rgb(0,0,0); stroke-width: 1; stroke-dasharray: none; stroke-linecap: butt; stroke-dashoffset: 0; stroke-linejoin: miter; stroke-miterlimit: 4; fill: rgb(255,255,255); fill-opacity: 0; fill-rule: nonzero; opacity: 1;"  transform=" translate(0, 0)" d="M 0 0" stroke-linecap="round" />
</g>
<g transform="matrix(1 0 0 1 95.4764758137 234.0855977254)" id="bAKtwgk3uUVakFgUNG4HZ"  >
<path style="stroke: rgb(0,0,0); stroke-width: 1; stroke-dasharray: none; stroke-linecap: butt; stroke-dashoffset: 0; stroke-linejoin: miter; stroke-miterlimit: 4; fill: rgb(255,255,255); fill-opacity: 0; fill-rule: nonzero; opacity: 1;"  transform=" translate(0, 0)" d="M 3.79588 8.12922 C 3.79588 8.12922 -13.28557 -8.12922 3.79588 -8.12922" stroke-linecap="round" />
</g>
<g transform="matrix(1.3347498837 0 0 1 94.0384313788 234.0855977254)" id="ZMBh_guWmBJxPXYQ18NwD"  >
<path style="stroke: rgb(0,0,0); stroke-width: 1; stroke-dasharray: none; stroke-linecap: butt; stroke-dashoffset: 0; stroke-linejoin: miter; stroke-miterlimit: 4; fill: rgb(255,255,255); fill-opacity: 0; fill-rule: nonzero; opacity: 1;"  transform=" translate(0, 0)" d="M 3.79588 8.12922 C 3.79588 8.12922 -13.28557 -8.12922 3.79588 -8.12922" stroke-linecap="round" />
</g>
<g transform="matrix(-1 0 0 1 112.7162948182 234.0855986561)" id="otRjKzfzEMGS3iRjEs7zM"  >
<path style="stroke: rgb(0,0,0); stroke-width: 1; stroke-dasharray: none; stroke-linecap: butt; stroke-dashoffset: 0; stroke-linejoin: miter; stroke-miterlimit: 4; fill: rgb(255,255,255); fill-opacity: 0; fill-rule: nonzero; opacity: 1;"  transform=" translate(-0.0000022222, 0)" d="M 3.79588 8.12922 C 3.79588 8.12922 -13.28557 -8.12922 3.79588 -8.12922" stroke-linecap="round" />
</g>
<g transform="matrix(1 0 0 1 98.772353139 225.9526226199)" id="_z_SAFCDnSGBJ4ueZSCWn"  >
<path style="stroke: rgb(0,0,0); stroke-width: 1; stroke-dasharray: none; stroke-linecap: butt; stroke-dashoffset: 0; stroke-linejoin: miter; stroke-miterlimit: 4; fill: rgb(255,255,255); fill-opacity: 0; fill-rule: nonzero; opacity: 1;"  transform=" translate(0, 0)" d="M 0 0" stroke-linecap="round" />
</g>
<g transform="matrix(1 0 0 1 104.095163313 225.9526226199)" id="S1DbTivHX_Xp_7HTWO-0p"  >
<path style="stroke: rgb(0,0,0); stroke-width: 1; stroke-dasharray: none; stroke-linecap: butt; stroke-dashoffset: 0; stroke-linejoin: miter; stroke-miterlimit: 4; fill: rgb(255,255,255); fill-opacity: 0; fill-rule: nonzero; opacity: 1;"  transform=" translate(0, 0)" d="M -5.32281 0 L 5.32281 0" stroke-linecap="round" />
</g>
<g transform="matrix(1 0 0 1 104.0357092126 222.1984326199)" id="l9M7bfNcQN6ePZbuCI7uP"  >
<path style="stroke: rgb(0,0,0); stroke-width: 1; stroke-dasharray: none; stroke-linecap: butt; stroke-dashoffset: 0; stroke-linejoin: miter; stroke-miterlimit: 4; fill: rgb(255,255,255); fill-opacity: 0; fill-rule: nonzero; opacity: 1;"  transform=" translate(0.000005, 0)" d="M -2.2384 3.75419 L -2.2384 -2.6501300000000003 C -2.2384 -3.2598900000000004 -1.74409 -3.7541900000000004 -1.13434 -3.7541900000000004 L 1.3933200000000001 -3.7541900000000004 L 1.3933200000000001 -3.7541900000000004 C 1.8600400000000001 -3.7541900000000004 2.23839 -3.37584 2.23839 -2.9091200000000006 L 2.23839 3.7541899999999995" stroke-linecap="round" />
</g>
<g transform="matrix(0.9728751174 0 0 0.9728751174 95.7868851719 284.5800382366)" id="u2mf7vcNoj4UpOl1Cviu2"  >
<path style="stroke: rgb(0,0,0); stroke-width: 1; stroke-dasharray: none; stroke-linecap: butt; stroke-dashoffset: 0; stroke-linejoin: miter; stroke-miterlimit: 4; fill: rgb(255,255,255); fill-opacity: 0; fill-rule: nonzero; opacity: 1;"  transform=" translate(0, 0)" d="M -7.19099 -35.28339 L -7.19099 35.28338000000001 L 7.191 35.28338000000001 L 7.191 -35.28339 z" stroke-linecap="round" />
</g>
<g transform="matrix(1 0 0 1 107.586080725 318.786464997)" id="bz0utqAJRe4bITV-IplsN"  >
<path style="stroke: rgb(0,0,0); stroke-width: 1; stroke-dasharray: none; stroke-linecap: butt; stroke-dashoffset: 0; stroke-linejoin: miter; stroke-miterlimit: 4; fill: rgb(255,255,255); fill-opacity: 0; fill-rule: nonzero; opacity: 1;"  transform=" translate(0, 0)" d="M -3.81682 0 L 3.81682 0" stroke-linecap="round" />
</g>
<g transform="matrix(1 0 0 1 106.2741042126 316.8929586138)" id="_bidCE9XM7ouVvCFQ2D9l"  >
<path style="stroke: rgb(0,0,0); stroke-width: 1; stroke-dasharray: none; stroke-linecap: butt; stroke-dashoffset: 0; stroke-linejoin: miter; stroke-miterlimit: 4; fill: rgb(255,255,255); fill-opacity: 0; fill-rule: nonzero; opacity: 1;"  transform=" translate(0, 0)" d="M -1.65841 0 L 1.65841 0" stroke-linecap="round" />
</g>
<g transform="matrix(1 0 0 1 107.586080725 310.0440224336)" id="asY4pkOGmBUSuyyE1Q-wy"  >
<path style="stroke: rgb(0,0,0); stroke-width: 1; stroke-dasharray: none; stroke-linecap: butt; stroke-dashoffset: 0; stroke-linejoin: miter; stroke-miterlimit: 4; fill: rgb(255,255,255); fill-opacity: 0; fill-rule: nonzero; opacity: 1;"  transform=" translate(0, 0)" d="M -3.81682 0 L 3.81682 0" stroke-linecap="round" />
</g>
<g transform="matrix(1 0 0 1 106.2741042126 315.1638171386)" id="YYzSlzlHqckpkBdaLi85v"  >
<path style="stroke: rgb(0,0,0); stroke-width: 1; stroke-dasharray: none; stroke-linecap: butt; stroke-dashoffset: 0; stroke-linejoin: miter; stroke-miterlimit: 4; fill: rgb(255,255,255); fill-opacity: 0; fill-rule: nonzero; opacity: 1;"  transform=" translate(0, 0)" d="M -1.65841 0 L 1.65841 0" stroke-linecap="round" />
</g>
<g transform="matrix(1 0 0 1 106.2741042126 313.5555946477)" id="0JMtpv0XvW6D7Ge-2j0-r"  >
<path style="stroke: rgb(0,0,0); stroke-width: 1; stroke-dasharray: none; stroke-linecap: butt; stroke-dashoffset: 0; stroke-linejoin: miter; stroke-miterlimit: 4; fill: rgb(255,255,255); fill-opacity: 0; fill-rule: nonzero; opacity: 1;"  transform=" translate(0, 0)" d="M -1.65841 0 L 1.65841 0" stroke-linecap="round" />
</g>
<g transform="matrix(1 0 0 1 106.2741042126 312.068291141)" id="WObYBoD5Eh9aBozNOix9z"  >
<path style="stroke: rgb(0,0,0); stroke-width: 1; stroke-dasharray: none; stroke-linecap: butt; stroke-dashoffset: 0; stroke-linejoin: miter; stroke-miterlimit: 4; fill: rgb(255,255,255); fill-opacity: 0; fill-rule: nonzero; opacity: 1;"  transform=" translate(0, 0)" d="M -1.65841 0 L 1.65841 0" stroke-linecap="round" />
</g>
<g transform="matrix(1 0 0 1 106.2741042126 308.0773176096)" id="Djl0fUUJqiqA_NKUqt3aq"  >
<path style="stroke: rgb(0,0,0); stroke-width: 1; stroke-dasharray: none; stroke-linecap: butt; stroke-dashoffset: 0; stroke-linejoin: miter; stroke-miterlimit: 4; fill: rgb(255,255,255); fill-opacity: 0; fill-rule: nonzero; opacity: 1;"  transform=" translate(0, 0)" d="M -1.65841 0 L 1.65841 0" stroke-linecap="round" />
</g>
<g transform="matrix(1 0 0 1 107.586080725 301.2283814294)" id="1mTRLMuY8hLzXSWDuh28I"  >
<path style="stroke: rgb(0,0,0); stroke-width: 1; stroke-dasharray: none; stroke-linecap: butt; stroke-dashoffset: 0; stroke-linejoin: miter; stroke-miterlimit: 4; fill: rgb(255,255,255); fill-opacity: 0; fill-rule: nonzero; opacity: 1;"  transform=" translate(0, 0)" d="M -3.81682 0 L 3.81682 0" stroke-linecap="round" />
</g>
<g transform="matrix(1 0 0 1 106.2741042126 306.3481761344)" id="A4LKu-bp8nry_78kIl8T1"  >
<path style="stroke: rgb(0,0,0); stroke-width: 1; stroke-dasharray: none; stroke-linecap: butt; stroke-dashoffset: 0; stroke-linejoin: miter; stroke-miterlimit: 4; fill: rgb(255,255,255); fill-opacity: 0; fill-rule: nonzero; opacity: 1;"  transform=" translate(0, 0)" d="M -1.65841 0 L 1.65841 0" stroke-linecap="round" />
</g>
<g transform="matrix(1 0 0 1 106.2741042126 304.7399536435)" id="1UKO5I_Ug40Z2jflG2pMP"  >
<path style="stroke: rgb(0,0,0); stroke-width: 1; stroke-dasharray: none; stroke-linecap: butt; stroke-dashoffset: 0; stroke-linejoin: miter; stroke-miterlimit: 4; fill: rgb(255,255,255); fill-opacity: 0; fill-rule: nonzero; opacity: 1;"  transform=" translate(0, 0)" d="M -1.65841 0 L 1.65841 0" stroke-linecap="round" />
</g>
<g transform="matrix(1 0 0 1 106.2741042126 303.2526501368)" id="TRwCifrScsQey_mX39nTu"  >
<path style="stroke: rgb(0,0,0); stroke-width: 1; stroke-dasharray: none; stroke-linecap: butt; stroke-dashoffset: 0; stroke-linejoin: miter; stroke-miterlimit: 4; fill: rgb(255,255,255); fill-opacity: 0; fill-rule: nonzero; opacity: 1;"  transform=" translate(0, 0)" d="M -1.65841 0 L 1.65841 0" stroke-linecap="round" />
</g>
<g transform="matrix(1 0 0 1 106.2741042126 299.184373366)" id="IuUxvWH7xQxPJ58KQLAqV"  >
<path style="stroke: rgb(0,0,0); stroke-width: 1; stroke-dasharray: none; stroke-linecap: butt; stroke-dashoffset: 0; stroke-linejoin: miter; stroke-miterlimit: 4; fill: rgb(255,255,255); fill-opacity: 0; fill-rule: nonzero; opacity: 1;"  transform=" translate(0, 0)" d="M -1.65841 0 L 1.65841 0" stroke-linecap="round" />
</g>
<g transform="matrix(1 0 0 1 107.586080725 292.3354371858)" id="AkBG1KKlpK1-LK4w6Qtsg"  >
<path style="stroke: rgb(0,0,0); stroke-width: 1; stroke-dasharray: none; stroke-linecap: butt; stroke-dashoffset: 0; stroke-linejoin: miter; stroke-miterlimit: 4; fill: rgb(255,255,255); fill-opacity: 0; fill-rule: nonzero; opacity: 1;"  transform=" translate(0, 0)" d="M -3.81682 0 L 3.81682 0" stroke-linecap="round" />
</g>
<g transform="matrix(1 0 0 1 106.2741042126 297.4552318908)" id="vgJt9er96wT4eOFvoeD-K"  >
<path style="stroke: rgb(0,0,0); stroke-width: 1; stroke-dasharray: none; stroke-linecap: butt; stroke-dashoffset: 0; stroke-linejoin: miter; stroke-miterlimit: 4; fill: rgb(255,255,255); fill-opacity: 0; fill-rule: nonzero; opacity: 1;"  transform=" translate(0, 0)" d="M -1.65841 0 L 1.65841 0" stroke-linecap="round" />
</g>
<g transform="matrix(1 0 0 1 106.2741042126 295.8470093999)" id="UtaIO9wvtCUP3A8hEQNAR"  >
<path style="stroke: rgb(0,0,0); stroke-width: 1; stroke-dasharray: none; stroke-linecap: butt; stroke-dashoffset: 0; stroke-linejoin: miter; stroke-miterlimit: 4; fill: rgb(255,255,255); fill-opacity: 0; fill-rule: nonzero; opacity: 1;"  transform=" translate(0, 0)" d="M -1.65841 0 L 1.65841 0" stroke-linecap="round" />
</g>
<g transform="matrix(1 0 0 1 106.2741042126 294.3597058932)" id="VznjgXLVSLK5p7PuNHMnR"  >
<path style="stroke: rgb(0,0,0); stroke-width: 1; stroke-dasharray: none; stroke-linecap: butt; stroke-dashoffset: 0; stroke-linejoin: miter; stroke-miterlimit: 4; fill: rgb(255,255,255); fill-opacity: 0; fill-rule: nonzero; opacity: 1;"  transform=" translate(0, 0)" d="M -1.65841 0 L 1.65841 0" stroke-linecap="round" />
</g>
<g transform="matrix(1 0 0 1 106.2741042126 290.2000928339)" id="xt0jzlBHWd1SH_a7hLkVk"  >
<path style="stroke: rgb(0,0,0); stroke-width: 1; stroke-dasharray: none; stroke-linecap: butt; stroke-dashoffset: 0; stroke-linejoin: miter; stroke-miterlimit: 4; fill: rgb(255,255,255); fill-opacity: 0; fill-rule: nonzero; opacity: 1;"  transform=" translate(0, 0)" d="M -1.65841 0 L 1.65841 0" stroke-linecap="round" />
</g>
<g transform="matrix(1 0 0 1 107.586080725 283.3511566537)" id="CjKPi-_5vj9U5dhqhhDHm"  >
<path style="stroke: rgb(0,0,0); stroke-width: 1; stroke-dasharray: none; stroke-linecap: butt; stroke-dashoffset: 0; stroke-linejoin: miter; stroke-miterlimit: 4; fill: rgb(255,255,255); fill-opacity: 0; fill-rule: nonzero; opacity: 1;"  transform=" translate(0, 0)" d="M -3.81682 0 L 3.81682 0" stroke-linecap="round" />
</g>
<g transform="matrix(1 0 0 1 106.2741042126 288.4709513587)" id="uNQTWqU7f8BxlLptHtK-H"  >
<path style="stroke: rgb(0,0,0); stroke-width: 1; stroke-dasharray: none; stroke-linecap: butt; stroke-dashoffset: 0; stroke-linejoin: miter; stroke-miterlimit: 4; fill: rgb(255,255,255); fill-opacity: 0; fill-rule: nonzero; opacity: 1;"  transform=" translate(0, 0)" d="M -1.65841 0 L 1.65841 0" stroke-linecap="round" />
</g>
<g transform="matrix(1 0 0 1 106.2741042126 286.8627288678)" id="pDuWWwqyCusFuNeuiPalc"  >
<path style="stroke: rgb(0,0,0); stroke-width: 1; stroke-dasharray: none; stroke-linecap: butt; stroke-dashoffset: 0; stroke-linejoin: miter; stroke-miterlimit: 4; fill: rgb(255,255,255); fill-opacity: 0; fill-rule: nonzero; opacity: 1;"  transform=" translate(0, 0)" d="M -1.65841 0 L 1.65841 0" stroke-linecap="round" />
</g>
<g transform="matrix(1 0 0 1 106.2741042126 285.3754253611)" id="BZ-g2iRFQQb3X0GolVc-r"  >
<path style="stroke: rgb(0,0,0); stroke-width: 1; stroke-dasharray: none; stroke-linecap: butt; stroke-dashoffset: 0; stroke-linejoin: miter; stroke-miterlimit: 4; fill: rgb(255,255,255); fill-opacity: 0; fill-rule: nonzero; opacity: 1;"  transform=" translate(0, 0)" d="M -1.65841 0 L 1.65841 0" stroke-linecap="round" />
</g>
<g transform="matrix(1 0 0 1 106.2741042126 281.0948933176)" id="Am3XzMrJ-7XFGrpQAbqHa"  >
<path style="stroke: rgb(0,0,0); stroke-width: 1; stroke-dasharray: none; stroke-linecap: butt; stroke-dashoffset: 0; stroke-linejoin: miter; stroke-miterlimit: 4; fill: rgb(255,255,255); fill-opacity: 0; fill-rule: nonzero; opacity: 1;"  transform=" translate(0, 0)" d="M -1.65841 0 L 1.65841 0" stroke-linecap="round" />
</g>
<g transform="matrix(1 0 0 1 107.586080725 274.2459571374)" id="wfaLB4PE3iMTdWcVnPyvD"  >
<path style="stroke: rgb(0,0,0); stroke-width: 1; stroke-dasharray: none; stroke-linecap: butt; stroke-dashoffset: 0; stroke-linejoin: miter; stroke-miterlimit: 4; fill: rgb(255,255,255); fill-opacity: 0; fill-rule: nonzero; opacity: 1;"  transform=" translate(0, 0)" d="M -3.81682 0 L 3.81682 0" stroke-linecap="round" />
</g>
<g transform="matrix(1 0 0 1 106.2741042126 279.3657518424)" id="oL0uXhr13QZXsQ-nElFAu"  >
<path style="stroke: rgb(0,0,0); stroke-width: 1; stroke-dasharray: none; stroke-linecap: butt; stroke-dashoffset: 0; stroke-linejoin: miter; stroke-miterlimit: 4; fill: rgb(255,255,255); fill-opacity: 0; fill-rule: nonzero; opacity: 1;"  transform=" translate(0, 0)" d="M -1.65841 0 L 1.65841 0" stroke-linecap="round" />
</g>
<g transform="matrix(1 0 0 1 106.2741042126 277.7575293515)" id="VTmfv87ira_EjjYPOEpni"  >
<path style="stroke: rgb(0,0,0); stroke-width: 1; stroke-dasharray: none; stroke-linecap: butt; stroke-dashoffset: 0; stroke-linejoin: miter; stroke-miterlimit: 4; fill: rgb(255,255,255); fill-opacity: 0; fill-rule: nonzero; opacity: 1;"  transform=" translate(0, 0)" d="M -1.65841 0 L 1.65841 0" stroke-linecap="round" />
</g>
<g transform="matrix(1 0 0 1 106.2741042126 276.2702258448)" id="RCLJ6DGZxIN3Ys-Pt9RJT"  >
<path style="stroke: rgb(0,0,0); stroke-width: 1; stroke-dasharray: none; stroke-linecap: butt; stroke-dashoffset: 0; stroke-linejoin: miter; stroke-miterlimit: 4; fill: rgb(255,255,255); fill-opacity: 0; fill-rule: nonzero; opacity: 1;"  transform=" translate(0, 0)" d="M -1.65841 0 L 1.65841 0" stroke-linecap="round" />
</g>
<g transform="matrix(1 0 0 1 106.2741042126 272.2315317699)" id="i-ZVa465mX0ztOoYvM1kO"  >
<path style="stroke: rgb(0,0,0); stroke-width: 1; stroke-dasharray: none; stroke-linecap: butt; stroke-dashoffset: 0; stroke-linejoin: miter; stroke-miterlimit: 4; fill: rgb(255,255,255); fill-opacity: 0; fill-rule: nonzero; opacity: 1;"  transform=" translate(0, 0)" d="M -1.65841 0 L 1.65841 0" stroke-linecap="round" />
</g>
<g transform="matrix(1 0 0 1 107.586080725 265.3825955897)" id="y6Rchxmd3jGsEjaxlvVRZ"  >
<path style="stroke: rgb(0,0,0); stroke-width: 1; stroke-dasharray: none; stroke-linecap: butt; stroke-dashoffset: 0; stroke-linejoin: miter; stroke-miterlimit: 4; fill: rgb(255,255,255); fill-opacity: 0; fill-rule: nonzero; opacity: 1;"  transform=" translate(0, 0)" d="M -3.81682 0 L 3.81682 0" stroke-linecap="round" />
</g>
<g transform="matrix(1 0 0 1 106.2741042126 270.5023902947)" id="vViK5ieF-foaV_WR52ees"  >
<path style="stroke: rgb(0,0,0); stroke-width: 1; stroke-dasharray: none; stroke-linecap: butt; stroke-dashoffset: 0; stroke-linejoin: miter; stroke-miterlimit: 4; fill: rgb(255,255,255); fill-opacity: 0; fill-rule: nonzero; opacity: 1;"  transform=" translate(0, 0)" d="M -1.65841 0 L 1.65841 0" stroke-linecap="round" />
</g>
<g transform="matrix(1 0 0 1 106.2741042126 268.8941678038)" id="DcCQWYCOYPauuZ5mRrc9s"  >
<path style="stroke: rgb(0,0,0); stroke-width: 1; stroke-dasharray: none; stroke-linecap: butt; stroke-dashoffset: 0; stroke-linejoin: miter; stroke-miterlimit: 4; fill: rgb(255,255,255); fill-opacity: 0; fill-rule: nonzero; opacity: 1;"  transform=" translate(0, 0)" d="M -1.65841 0 L 1.65841 0" stroke-linecap="round" />
</g>
<g transform="matrix(1 0 0 1 106.2741042126 267.2859453128)" id="M4Fp7dxCpO8R62InhtkXF"  >
<path style="stroke: rgb(0,0,0); stroke-width: 1; stroke-dasharray: none; stroke-linecap: butt; stroke-dashoffset: 0; stroke-linejoin: miter; stroke-miterlimit: 4; fill: rgb(255,255,255); fill-opacity: 0; fill-rule: nonzero; opacity: 1;"  transform=" translate(0, 0)" d="M -1.65841 0 L 1.65841 0" stroke-linecap="round" />
</g>
<g transform="matrix(1 0 0 1 106.2741042126 263.0054132693)" id="03pxZYgvtC7qCTWxwfGj_"  >
<path style="stroke: rgb(0,0,0); stroke-width: 1; stroke-dasharray: none; stroke-linecap: butt; stroke-dashoffset: 0; stroke-linejoin: miter; stroke-miterlimit: 4; fill: rgb(255,255,255); fill-opacity: 0; fill-rule: nonzero; opacity: 1;"  transform=" translate(0, 0)" d="M -1.65841 0 L 1.65841 0" stroke-linecap="round" />
</g>
<g transform="matrix(1 0 0 1 107.586080725 256.1564770891)" id="Psnx4yVT4UwbxdGL6m9g0"  >
<path style="stroke: rgb(0,0,0); stroke-width: 1; stroke-dasharray: none; stroke-linecap: butt; stroke-dashoffset: 0; stroke-linejoin: miter; stroke-miterlimit: 4; fill: rgb(255,255,255); fill-opacity: 0; fill-rule: nonzero; opacity: 1;"  transform=" translate(0, 0)" d="M -3.81682 0 L 3.81682 0" stroke-linecap="round" />
</g>
<g transform="matrix(1 0 0 1 106.2741042126 261.2762717941)" id="RZcInb07M7-dS84c7Tl5Z"  >
<path style="stroke: rgb(0,0,0); stroke-width: 1; stroke-dasharray: none; stroke-linecap: butt; stroke-dashoffset: 0; stroke-linejoin: miter; stroke-miterlimit: 4; fill: rgb(255,255,255); fill-opacity: 0; fill-rule: nonzero; opacity: 1;"  transform=" translate(0, 0)" d="M -1.65841 0 L 1.65841 0" stroke-linecap="round" />
</g>
<g transform="matrix(1 0 0 1 106.2741042126 259.6680493032)" id="MWhJ10eXb0SoOI6x9hYUU"  >
<path style="stroke: rgb(0,0,0); stroke-width: 1; stroke-dasharray: none; stroke-linecap: butt; stroke-dashoffset: 0; stroke-linejoin: miter; stroke-miterlimit: 4; fill: rgb(255,255,255); fill-opacity: 0; fill-rule: nonzero; opacity: 1;"  transform=" translate(0, 0)" d="M -1.65841 0 L 1.65841 0" stroke-linecap="round" />
</g>
<g transform="matrix(1 0 0 1 106.2741042126 258.1807457965)" id="ei-pr4PVvcwhd56Ll9nEU"  >
<path style="stroke: rgb(0,0,0); stroke-width: 1; stroke-dasharray: none; stroke-linecap: butt; stroke-dashoffset: 0; stroke-linejoin: miter; stroke-miterlimit: 4; fill: rgb(255,255,255); fill-opacity: 0; fill-rule: nonzero; opacity: 1;"  transform=" translate(0, 0)" d="M -1.65841 0 L 1.65841 0" stroke-linecap="round" />
</g>
<g transform="matrix(1 0 0 1 106.253573313 254.2285087953)" id="mvGNH0b6lsfM7eXKTxnxV"  >
<path style="stroke: rgb(0,0,0); stroke-width: 1; stroke-dasharray: none; stroke-linecap: butt; stroke-dashoffset: 0; stroke-linejoin: miter; stroke-miterlimit: 4; fill: rgb(255,255,255); fill-opacity: 0; fill-rule: nonzero; opacity: 1;"  transform=" translate(0, 0)" d="M -1.65841 0 L 1.65841 0" stroke-linecap="round" />
</g>
<g transform="matrix(1 0 0 1 106.2741042126 252.6202863044)" id="UQVGgcQWsSroaWczbpXuT"  >
<path style="stroke: rgb(0,0,0); stroke-width: 1; stroke-dasharray: none; stroke-linecap: butt; stroke-dashoffset: 0; stroke-linejoin: miter; stroke-miterlimit: 4; fill: rgb(255,255,255); fill-opacity: 0; fill-rule: nonzero; opacity: 1;"  transform=" translate(0, 0)" d="M -1.65841 0 L 1.65841 0" stroke-linecap="round" />
</g>
<g transform="matrix(1 0 0 1 106.253573313 250.8911448292)" id="X59f6rwn5w9CPcpUpxym0"  >
<path style="stroke: rgb(0,0,0); stroke-width: 1; stroke-dasharray: none; stroke-linecap: butt; stroke-dashoffset: 0; stroke-linejoin: miter; stroke-miterlimit: 4; fill: rgb(255,255,255); fill-opacity: 0; fill-rule: nonzero; opacity: 1;"  transform=" translate(0, 0)" d="M -1.65841 0 L 1.65841 0" stroke-linecap="round" />
</g>
<g transform="matrix(1 0 0 1 103.0232286758 221.700310638)" id="hJrUWH2TLy-G_q5ONSIH3"  >
<path style="stroke: rgb(0,0,0); stroke-width: 1; stroke-dasharray: none; stroke-linecap: butt; stroke-dashoffset: 0; stroke-linejoin: miter; stroke-miterlimit: 4; fill: rgb(255,255,255); fill-opacity: 0; fill-rule: nonzero; opacity: 1;"  transform=" translate(0, 0)" d="M 3.25088 3.02862 L 3.23448 -2.3908199999999997 C 3.2322 -3.1454999999999997 2.61977 -3.75607 1.86509 -3.75607 L -0.8333699999999999 -3.75607 L -0.8333699999999999 -3.75607 C -2.16852 -3.75607 -3.25087 -2.67372 -3.25087 -1.3385699999999998 L -3.25087 3.7560700000000002" stroke-linecap="round" />
</g>
<g transform="matrix(0.7005045139 0 0 0.8163096868 95.7939783642 258.2628216896)" id="H8XUspP1u_VJmBWtX4Phs"  >
<path style="stroke: rgb(48,133,242); stroke-width: 0; stroke-dasharray: none; stroke-linecap: butt; stroke-dashoffset: 0; stroke-linejoin: miter; stroke-miterlimit: 4; fill: rgb(197,76,126); fill-rule: nonzero; opacity: 1;"  transform=" translate(0, 0)" d="M -9.33442 -9.33442 L 9.33441 -9.33442 L 9.33441 9.33441 L -9.33442 9.33441 z" stroke-linecap="round" />
</g>
</svg>